<?xml version="1.0" standalone="no"?>
<!DOCTYPE svg PUBLIC "-//W3C//DTD SVG 20010904//EN"
 "http://www.w3.org/TR/2001/REC-SVG-20010904/DTD/svg10.dtd">
<svg version="1.0" xmlns="http://www.w3.org/2000/svg"
 width="920.000000pt" height="916.000000pt" viewBox="0 0 920.000000 916.000000"
 preserveAspectRatio="xMidYMid meet">

<g transform="translate(0.000000,916.000000) scale(0.100000,-0.100000)"
fill="#000000" stroke="none">
<path d="M2330 9145 c-8 -2 -62 -9 -120 -15 -738 -84 -1418 -516 -1823 -1158
-160 -253 -276 -542 -336 -833 -53 -257 -52 -195 -48 -2624 3 -2422 0 -2279
52 -2523 142 -676 577 -1281 1179 -1639 210 -125 419 -211 661 -273 315 -80
116 -75 2710 -75 2559 0 2371 -5 2658 64 668 160 1238 581 1588 1171 190 322
301 664 339 1049 14 142 14 4430 0 4572 -59 596 -307 1125 -720 1540 -400 401
-849 628 -1438 727 -87 14 -328 16 -2392 18 -1262 1 -2302 0 -2310 -1z m4655
-388 c304 -53 541 -137 773 -274 376 -221 661 -528 853 -919 118 -242 191
-518 210 -799 6 -97 9 -901 7 -2295 -4 -2345 0 -2187 -60 -2445 -100 -431
-366 -863 -706 -1144 -334 -276 -677 -427 -1117 -493 -131 -19 -4531 -19
-4680 0 -376 50 -718 186 -1012 403 -513 379 -826 943 -873 1574 -14 190 -14
4239 0 4425 60 784 549 1479 1265 1799 207 92 458 159 675 179 54 6 1054 9
2330 8 2075 -2 2242 -3 2335 -19z"/>
<path d="M7110 7804 c-95 -25 -161 -65 -240 -144 -82 -81 -119 -146 -146 -252
-21 -83 -15 -220 15 -303 57 -161 195 -290 360 -339 85 -25 240 -21 322 8 181
64 315 215 354 401 18 88 18 132 0 218 -41 197 -198 361 -390 412 -73 19 -202
18 -275 -1z"/>
<path d="M4455 6960 c-708 -46 -1336 -385 -1765 -952 -462 -610 -600 -1400
-374 -2143 238 -788 905 -1420 1705 -1615 218 -53 322 -65 579 -65 239 0 327
8 505 46 925 198 1657 937 1844 1859 67 334 62 702 -15 1030 -177 755 -718
1383 -1443 1675 -318 127 -690 187 -1036 165z m402 -385 c617 -80 1159 -436
1483 -975 126 -209 204 -421 257 -695 24 -129 29 -449 9 -597 -125 -900 -814
-1599 -1710 -1734 -552 -82 -1134 78 -1566 431 -580 475 -850 1217 -709 1951
118 619 531 1154 1105 1434 115 56 327 130 444 155 208 45 480 57 687 30z"/>
</g>
</svg>
