<?xml version="1.0" standalone="no"?>
<!DOCTYPE svg PUBLIC "-//W3C//DTD SVG 20010904//EN"
 "http://www.w3.org/TR/2001/REC-SVG-20010904/DTD/svg10.dtd">
<svg version="1.0" xmlns="http://www.w3.org/2000/svg"
 width="512.000000pt" height="512.000000pt" viewBox="0 0 512.000000 512.000000"
 preserveAspectRatio="xMidYMid meet">

<g transform="translate(0.000000,512.000000) scale(0.100000,-0.100000)"
fill="#000000" stroke="none">
<path d="M2265 5100 c-573 -90 -1095 -357 -1505 -769 -206 -208 -379 -449
-500 -696 -171 -352 -244 -660 -244 -1040 -1 -405 84 -756 273 -1132 l50 -100
-165 -598 c-90 -329 -164 -608 -164 -619 0 -36 41 -105 74 -126 61 -37 100
-30 737 136 l600 157 87 -41 c280 -132 534 -195 922 -226 345 -28 706 21 1040
143 135 50 355 162 485 248 607 401 1011 1046 1127 1798 26 170 31 531 10 685
-72 513 -259 936 -590 1331 -298 355 -793 668 -1251 791 -234 62 -293 69 -591
73 -234 4 -293 2 -395 -15z m721 -328 c292 -56 557 -163 799 -322 278 -183
441 -348 644 -651 197 -295 315 -593 367 -925 23 -147 22 -431 0 -578 -145
-932 -788 -1660 -1656 -1875 -316 -78 -666 -82 -1034 -11 -144 28 -308 83
-480 160 -77 34 -156 65 -175 67 -26 4 -181 -33 -540 -126 -277 -72 -505 -130
-507 -129 -1 2 58 221 131 488 74 267 134 499 135 517 0 20 -27 86 -74 180
-159 317 -234 573 -255 878 -42 606 189 1201 645 1660 345 346 794 584 1258
665 162 28 161 28 406 25 180 -2 247 -7 336 -23z"/>
<path d="M1444 3872 c-163 -57 -302 -221 -380 -450 -74 -217 -64 -426 32 -677
178 -462 663 -964 1229 -1273 316 -172 595 -251 849 -239 223 11 373 74 517
217 107 106 171 224 195 360 27 155 -1 255 -90 322 -100 74 -552 278 -653 294
-58 9 -130 -11 -186 -52 -26 -19 -87 -84 -134 -144 l-86 -109 -68 34 c-299
151 -498 323 -643 553 l-27 43 60 71 c32 38 74 98 93 131 30 57 33 69 32 147
0 81 -3 90 -50 190 -28 58 -81 182 -118 277 -90 230 -136 282 -274 312 -82 17
-238 13 -298 -7z m278 -431 c26 -69 70 -171 97 -229 28 -57 51 -107 51 -111 0
-3 -34 -47 -75 -96 -138 -163 -160 -252 -95 -374 51 -96 151 -236 232 -326
152 -168 300 -279 548 -412 164 -88 209 -104 281 -105 96 0 147 37 290 214
l79 97 87 -39 c49 -21 147 -65 218 -98 l130 -60 -2 -45 c-2 -58 -53 -157 -105
-201 -189 -162 -508 -139 -927 67 -450 221 -899 649 -1095 1043 -94 189 -124
378 -82 519 26 87 84 194 134 243 l42 43 72 -3 73 -3 47 -124z"/>
</g>
</svg>
